<svg id="图层_1" data-name="图层 1" xmlns="http://www.w3.org/2000/svg" viewBox="0 0 28.45 27.17"><defs><style>.cls-1{fill:#dd0e23;}.cls-2{fill:#fff;}</style></defs><title>logo-small</title><path class="cls-1" d="M.31,14.56c-2-9.83,6-13.36,9.54-14.07,10.6-2.15,18.61,2.95,18.61,11.79S25.51,26,15.72,27,2.26,24.39.31,14.56Z"/><path class="cls-2" d="M12.28,10.63a.74.74,0,0,1,.61-.91c.68-.14,1.2.19,1.2.76s-.19.89-.82.95S12.41,11.27,12.28,10.63Z"/><path class="cls-2" d="M3.91,14.59A18.81,18.81,0,0,1,4,11.35c.12-1.17.59-1.74,1.47-1.74,1.16,0,1.26,2.4,2.46,2.4s1-2.46,2.47-2.46c1.14,0,1.11,1,1.22,2.07a16.94,16.94,0,0,1,0,3.29c-.13.78-.38,1.35-1.16,1.35s-.78-.66-.78-1.33,0-2,0-2-.94,1.25-1.93,1.25-1.92-1.46-1.92-1.46V15c0,.94-.23,1.29-.93,1.29S4,15.84,3.91,14.59Z"/><path class="cls-2" d="M14.14,15.29a.85.85,0,0,1-1,1,.85.85,0,0,1-1-1l-.05-2a1.2,1.2,0,0,1,1-1.33,1.2,1.2,0,0,1,1,1.33Z"/><path class="cls-2" d="M16.89,19a.79.79,0,0,1-.82-.82.73.73,0,0,1,.73-.82l.46,0a.73.73,0,0,1,.8.8C18.06,18.73,17.7,19,16.89,19Zm-.48-5.73a1.33,1.33,0,0,1,.71-.09.78.78,0,0,1,.73.72.71.71,0,0,1-.65.72l-.42,0a.72.72,0,0,1-.38-1.38ZM18,16.19l-1.2,0a.12.12,0,0,1,0,0c0-.07.07-.14.18-.18l.44,0h.43a2,2,0,0,0,1.84-2.07,1.82,1.82,0,0,0-.16-.74c.35-.12.47-.38.47-.79s-.51-.81-1.18-.68a.86.86,0,0,0-.51.3,2.06,2.06,0,0,0-.69-.16,5.37,5.37,0,0,0-1.55.05A1.86,1.86,0,0,0,14.59,14a2.09,2.09,0,0,0,1,1.73.79.79,0,0,0-.11.4,1.65,1.65,0,0,0,0,.4,2.21,2.21,0,0,0-.79,1.56,1.63,1.63,0,0,0,1.57,2,5.78,5.78,0,0,0,2,0c1.26-.31,1.79-1,1.79-1.87A1.92,1.92,0,0,0,18,16.19Z"/><path class="cls-2" d="M22.6,14.82c-.63.06-.87-.17-1-.8a.74.74,0,0,1,.61-.91c.68-.14,1.2.19,1.2.76S23.23,14.76,22.6,14.82Zm-.77-3.2a2,2,0,0,0-1.65,2.43c.34,1.7,1,2.32,2.66,2.15s2.2-1,2.2-2.55S23.67,11.25,21.83,11.62Z"/></svg>