<svg width="128" height="37" viewBox="0 0 128 37" fill="none" xmlns="http://www.w3.org/2000/svg">
<path d="M4.01121 19.4953C2.04988 9.6686 10.0342 6.13543 13.5489 5.42412C24.1496 3.2738 32.1552 8.37103 32.1552 17.2142C32.1552 26.0574 29.2153 30.971 19.4226 31.9516C9.62952 32.9347 5.97008 29.322 4.01121 19.4953Z" fill="#DD0E23"/>
<path d="M15.986 15.5665C15.8597 14.9335 16.3738 14.706 16.6001 14.66C17.2827 14.5215 17.7985 14.8499 17.7985 15.4193C17.7985 15.9888 17.6091 16.3053 16.9785 16.3684C16.348 16.432 16.1123 16.1991 15.986 15.5665Z" fill="white"/>
<path d="M7.61651 19.5195C7.50008 18.2338 7.65382 16.6927 7.6944 16.286C7.81084 15.1172 8.28641 14.5502 9.16007 14.5502C10.3248 14.5502 10.422 16.9485 11.6162 16.9485C12.8101 16.9485 12.5674 14.4919 14.0818 14.4919C15.2179 14.4919 15.1884 15.507 15.3052 16.559C15.4015 17.4302 15.4216 19.1694 15.3052 19.8462C15.1715 20.6235 14.9264 21.1979 14.1405 21.1979C13.3541 21.1979 13.364 20.542 13.364 19.8704C13.364 19.1989 13.3886 17.9128 13.3886 17.9128C13.3886 17.9128 12.4514 19.1669 11.4613 19.1669C10.4712 19.1669 9.5393 17.7057 9.5393 17.7057V19.8971C9.5393 20.8322 9.30643 21.1828 8.60742 21.1828C7.90759 21.1828 7.72966 20.7703 7.61651 19.5195Z" fill="white"/>
<path d="M17.8431 20.2202C17.8431 20.9536 17.4405 21.1824 16.8776 21.1824C16.3147 21.1824 15.9121 20.9532 15.9121 20.2202L15.8584 18.1859C15.8584 17.4524 16.3147 16.858 16.8776 16.858C17.4405 16.858 17.8968 17.4524 17.8968 18.1859L17.8431 20.2202Z" fill="white"/>
<path d="M20.5999 23.9223C20.0915 23.8845 19.7844 23.5762 19.7844 23.1039C19.7844 22.6316 20.0686 22.266 20.5101 22.2856L20.9684 22.3065C21.3682 22.3246 21.7695 22.4771 21.7695 23.1039C21.7691 23.6623 21.4043 23.9821 20.5999 23.9223ZM20.1194 18.1949C20.3912 18.0391 20.8315 18.1031 20.8315 18.1031C21.1948 18.1195 21.5592 18.4433 21.5592 18.8275C21.5592 19.2112 21.2763 19.5355 20.9131 19.5519L20.4966 19.5708C20.0956 19.5892 19.7188 19.3982 19.6922 18.8964C19.6729 18.5257 19.8476 18.3507 20.1194 18.1949ZM21.749 21.1225L20.5482 21.0766C20.5454 21.0664 20.5429 21.0561 20.5429 21.0459C20.5429 20.9774 20.6142 20.9036 20.7266 20.8692L21.1624 20.8495H21.3346V20.8417L21.592 20.8302C22.628 20.7831 23.4336 19.8594 23.4336 18.7652C23.4336 18.5056 23.3746 18.2564 23.2721 18.0256C23.6226 17.9042 23.7391 17.6427 23.7391 17.2401C23.7391 16.7276 23.2319 16.432 22.5596 16.5566C22.4247 16.5816 22.1857 16.6669 22.0459 16.8567C21.8249 16.7657 21.592 16.7108 21.3596 16.7001C21.3596 16.7001 20.5851 16.5976 19.8082 16.7534C19.0317 16.9092 18.154 17.5541 18.2929 18.9156C18.3795 19.7655 18.7443 20.3481 19.2896 20.6486C19.2183 20.7728 19.1773 20.9065 19.1773 21.0459C19.1773 21.1943 19.1945 21.3279 19.2252 21.4501C18.7583 21.8133 18.4893 22.3955 18.4344 23.0088C18.3421 24.0436 18.7206 24.7402 20.0021 24.9738C21.0906 25.1723 22.0213 24.9738 22.0213 24.9738C23.2856 24.6631 23.8075 23.9469 23.8075 23.1039C23.8084 21.7863 22.8683 21.1656 21.749 21.1225Z" fill="white"/>
<path d="M26.3073 19.7581C25.6768 19.8213 25.441 19.5888 25.3147 18.9558C25.1885 18.3228 25.7026 18.0953 25.9289 18.0494C26.6115 17.9108 27.1273 18.2392 27.1273 18.8086C27.1273 19.3781 26.9383 19.695 26.3073 19.7581ZM25.5394 16.5542C24.9322 16.6772 23.5527 17.2876 23.8917 18.9853C24.2304 20.683 24.8625 21.3074 26.5545 21.1373C28.2465 20.968 28.7544 20.1189 28.7544 18.5909C28.754 17.0634 27.3712 16.1823 25.5394 16.5542Z" fill="white"/>
<path d="M49.7891 14.6317C49.7617 15.2255 49.6016 15.7509 49.3086 16.2079C49.0156 16.661 48.6035 17.0126 48.0723 17.2626C47.5449 17.5126 46.9414 17.6376 46.2617 17.6376C45.1406 17.6376 44.2578 17.2723 43.6133 16.5419C42.9688 15.8114 42.6465 14.7802 42.6465 13.4481V13.0262C42.6465 12.1903 42.791 11.4598 43.0801 10.8348C43.373 10.2059 43.793 9.72156 44.3398 9.38171C44.8867 9.03796 45.5195 8.86609 46.2383 8.86609C47.2734 8.86609 48.1055 9.13953 48.7344 9.6864C49.3633 10.2294 49.7207 10.9794 49.8066 11.9364H47.7559C47.7402 11.4169 47.6094 11.0438 47.3633 10.8173C47.1172 10.5907 46.7422 10.4774 46.2383 10.4774C45.7266 10.4774 45.3516 10.6688 45.1133 11.0516C44.875 11.4344 44.75 12.0458 44.7383 12.8856V13.4891C44.7383 14.3993 44.8516 15.0497 45.0781 15.4403C45.3086 15.8309 45.7031 16.0262 46.2617 16.0262C46.7344 16.0262 47.0957 15.9149 47.3457 15.6923C47.5957 15.4696 47.7285 15.1161 47.7441 14.6317H49.7891ZM62.9863 13.4305C62.9863 14.2626 62.832 14.9989 62.5234 15.6395C62.2148 16.2802 61.7754 16.7743 61.2051 17.1219C60.6387 17.4657 59.9922 17.6376 59.2656 17.6376C58.5391 17.6376 57.8945 17.4716 57.332 17.1395C56.7695 16.8036 56.3301 16.3251 56.0137 15.704C55.7012 15.0829 55.5371 14.37 55.5215 13.5653V13.0848C55.5215 12.2489 55.6738 11.5126 55.9785 10.8759C56.2871 10.2352 56.7266 9.74109 57.2969 9.39343C57.8711 9.04578 58.5234 8.87195 59.2539 8.87195C59.9766 8.87195 60.6211 9.04382 61.1875 9.38757C61.7539 9.73132 62.1934 10.2216 62.5059 10.8583C62.8223 11.4911 62.9824 12.2177 62.9863 13.038V13.4305ZM60.8945 13.0731C60.8945 12.2255 60.752 11.5829 60.4668 11.1454C60.1855 10.704 59.7812 10.4833 59.2539 10.4833C58.2227 10.4833 57.6777 11.2567 57.6191 12.8036L57.6133 13.4305C57.6133 14.2665 57.752 14.9091 58.0293 15.3583C58.3066 15.8075 58.7188 16.0321 59.2656 16.0321C59.7852 16.0321 60.1855 15.8114 60.4668 15.37C60.748 14.9286 60.8906 14.2938 60.8945 13.4657V13.0731ZM76.1719 17.5204H74.127L71.1035 12.2118V17.5204H69.0469V8.98914H71.1035L74.1211 14.2977V8.98914H76.1719V17.5204ZM88.9941 10.577H86.4336V17.5204H84.377V10.577H81.8633V8.98914H88.9941V10.577ZM100.158 13.9052H96.9238V15.9384H100.744V17.5204H94.8672V8.98914H100.756V10.577H96.9238V12.3759H100.158V13.9052ZM113.707 17.5204H111.662L108.639 12.2118V17.5204H106.582V8.98914H108.639L111.656 14.2977V8.98914H113.707V17.5204ZM126.529 10.577H123.969V17.5204H121.912V10.577H119.398V8.98914H126.529V10.577ZM45.375 20.9891L47.2793 26.9247L49.1777 20.9891H51.8848V29.5204H49.8223V27.5282L50.0215 23.4501L47.959 29.5204H46.5996L44.5312 23.4442L44.7305 27.5282V29.5204H42.6738V20.9891H45.375ZM60.1484 27.9266H57.3301L56.8379 29.5204H54.6406L57.7695 20.9891H59.7031L62.8555 29.5204H60.6465L60.1484 27.9266ZM57.8223 26.3387H59.6562L58.7363 23.3798L57.8223 26.3387ZM68.6523 26.5087H67.5391V29.5204H65.4824V20.9891H68.8398C69.8516 20.9891 70.6426 21.2137 71.2129 21.663C71.7832 22.1122 72.0684 22.7469 72.0684 23.5673C72.0684 24.161 71.9473 24.6532 71.7051 25.0438C71.4668 25.4344 71.0918 25.7509 70.5801 25.993L72.3613 29.4325V29.5204H70.1582L68.6523 26.5087ZM67.5391 24.9208H68.8398C69.2305 24.9208 69.5234 24.8192 69.7188 24.6161C69.918 24.4091 70.0176 24.1219 70.0176 23.7548C70.0176 23.3876 69.918 23.1005 69.7188 22.8934C69.5195 22.6825 69.2266 22.577 68.8398 22.577H67.5391V24.9208ZM78.2109 26.3446L77.3672 27.2704V29.5204H75.3105V20.9891H77.3672V24.7509L78.082 23.6669L79.9219 20.9891H82.4648L79.582 24.7626L82.4648 29.5204H80.0273L78.2109 26.3446ZM90.2773 25.9052H87.043V27.9384H90.8633V29.5204H84.9863V20.9891H90.875V22.577H87.043V24.3759H90.2773V25.9052ZM100.516 22.577H97.9551V29.5204H95.8984V22.577H93.3848V20.9891H100.516V22.577ZM105.58 29.5204H103.529V20.9891H105.58V29.5204ZM116.135 29.5204H114.09L111.066 24.2118V29.5204H109.01V20.9891H111.066L114.084 26.2977V20.9891H116.135V29.5204ZM126.42 28.4657C126.104 28.8173 125.641 29.1005 125.031 29.3153C124.422 29.5302 123.754 29.6376 123.027 29.6376C121.91 29.6376 121.018 29.2958 120.35 28.6122C119.682 27.9286 119.324 26.9774 119.277 25.7587L119.271 25.0204C119.271 24.1805 119.42 23.4481 119.717 22.8231C120.014 22.1942 120.438 21.7118 120.988 21.3759C121.543 21.036 122.184 20.8661 122.91 20.8661C123.973 20.8661 124.797 21.1102 125.383 21.5985C125.973 22.0829 126.316 22.8075 126.414 23.7723H124.434C124.363 23.2958 124.211 22.9559 123.977 22.7528C123.742 22.5497 123.41 22.4481 122.98 22.4481C122.465 22.4481 122.066 22.6669 121.785 23.1044C121.504 23.5419 121.361 24.1669 121.357 24.9794V25.495C121.357 26.3466 121.502 26.9872 121.791 27.4169C122.084 27.8427 122.543 28.0555 123.168 28.0555C123.703 28.0555 124.102 27.9364 124.363 27.6981V26.3739H122.934V24.9618H126.42V28.4657Z" fill="white"/>
</svg>
