<svg width="24" height="25" viewBox="0 0 24 25" fill="none" xmlns="http://www.w3.org/2000/svg">
<path d="M15.5 14.5204H14.71L14.43 14.2504C15.41 13.1104 16 11.6304 16 10.0204C16 6.43039 13.09 3.52039 9.5 3.52039C5.91 3.52039 3 6.43039 3 10.0204C3 13.6104 5.91 16.5204 9.5 16.5204C11.11 16.5204 12.59 15.9304 13.73 14.9504L14 15.2304V16.0204L19 21.0104L20.49 19.5204L15.5 14.5204ZM9.5 14.5204C7.01 14.5204 5 12.5104 5 10.0204C5 7.53039 7.01 5.52039 9.5 5.52039C11.99 5.52039 14 7.53039 14 10.0204C14 12.5104 11.99 14.5204 9.5 14.5204Z" fill="#727272"/>
</svg>
