<svg width="16" height="19" viewBox="0 0 16 19" fill="none" xmlns="http://www.w3.org/2000/svg">
<path d="M6.8 0.931814L0.8 5.56039C0.551608 5.752 0.350001 6.00047 0.211145 6.28612C0.07229 6.57176 0 6.88674 0 7.2061V16.4632C0 17.0088 0.210714 17.5321 0.585786 17.9179C0.960859 18.3037 1.46957 18.5204 2 18.5204H14C14.5304 18.5204 15.0391 18.3037 15.4142 17.9179C15.7893 17.5321 16 17.0088 16 16.4632V7.2061C16 6.88674 15.9277 6.57176 15.7889 6.28612C15.65 6.00047 15.4484 5.752 15.2 5.56039L9.2 0.931814C8.85381 0.664752 8.43274 0.520386 8 0.520386C7.56726 0.520386 7.14619 0.664752 6.8 0.931814ZM6 17.4918H4C3.73478 17.4918 3.48043 17.3834 3.29289 17.1906C3.10536 16.9977 3 16.736 3 16.4632V14.4061C3 14.1333 3.10536 13.8717 3.29289 13.6788C3.48043 13.4859 3.73478 13.3775 4 13.3775H6C6.26522 13.3775 6.51957 13.4859 6.70711 13.6788C6.89464 13.8717 7 14.1333 7 14.4061V16.4632C7 16.736 6.89464 16.9977 6.70711 17.1906C6.51957 17.3834 6.26522 17.4918 6 17.4918ZM6 11.3204H4C3.73478 11.3204 3.48043 11.212 3.29289 11.0191C3.10536 10.8262 3 10.5646 3 10.2918V8.23467C3 7.96188 3.10536 7.70026 3.29289 7.50736C3.48043 7.31447 3.73478 7.2061 4 7.2061H6C6.26522 7.2061 6.51957 7.31447 6.70711 7.50736C6.89464 7.70026 7 7.96188 7 8.23467V10.2918C7 10.5646 6.89464 10.8262 6.70711 11.0191C6.51957 11.212 6.26522 11.3204 6 11.3204ZM12 17.4918H10C9.73478 17.4918 9.48043 17.3834 9.29289 17.1906C9.10536 16.9977 9 16.736 9 16.4632V14.4061C9 14.1333 9.10536 13.8717 9.29289 13.6788C9.48043 13.4859 9.73478 13.3775 10 13.3775H12C12.2652 13.3775 12.5196 13.4859 12.7071 13.6788C12.8946 13.8717 13 14.1333 13 14.4061V16.4632C13 16.736 12.8946 16.9977 12.7071 17.1906C12.5196 17.3834 12.2652 17.4918 12 17.4918Z" fill="white"/>
</svg>
